<svg version="1" xmlns="http://www.w3.org/2000/svg" width="682.667" height="682.667" viewBox="0 0 512.000000 512.000000"><path d="M101.5 2.3c-2.1 1.2-5.2 4.1-6.8 6.4-2.8 3.9-3 4.8-3.2 15.1-.1 6-.5 11.4-.8 11.9-.4.6-5.8 1-12.4 1.1-6.5 0-13.4.2-15.3.5-24.2 3.4-45.9 19.5-56 41.5C2.3 88.8.9 95.5.3 110.6c-.5 12.3-.3 14.2 1.1 15.7C3 127.9 19.7 128 256 128c231.5 0 253-.1 254.5-1.6 1.3-1.3 1.6-3.7 1.4-13.1-.1-12.7-1.7-21.8-5.1-30.3-7.5-18.8-23.4-34.6-41.6-41.3-10.6-4-16.2-4.9-30.7-5-7.4-.1-13.5-.3-13.6-.6 0-.4-.2-5.3-.3-11.1-.3-12.2-1.9-16.6-7.9-21.4-3.2-2.5-4.6-3-10-3-5.3-.1-7 .4-10.4 2.6-6.5 4.3-8.3 9.2-8.3 22.4v11.1l-127.9-.1H128.2l-.4-12c-.3-11.3-.5-12.4-3.2-16.3-5.1-7.6-15.5-10.4-23.1-6zM2.8 165l-2.3.6V308c0 145.6.1 147.9 3.6 155 .4.8 1.5 3.5 2.5 6 7.9 18.9 26.7 34.8 48.4 40.7 6.1 1.7 17.5 1.8 201.5 1.8h195l7.5-2.3c13.3-4.2 23.9-10.7 32.8-20.1 9.2-9.7 14.3-19.2 18.9-35.2 1.2-4 1.5-287.1.3-288.3-1-1-503.7-1.6-508.2-.6zm308.6 38.1c6.2 2.3 12.1 7.9 15.2 14.3 3 6.5 2.9 17-.4 23.2-10.4 20.2-38.5 20.2-48.9 0-5.6-10.8-2.6-25.2 6.9-32.9 8.1-6.6 17.4-8.2 27.2-4.6zm94.2 1.4c13.3 6.5 18.6 22.4 12 35.9-5.1 10.3-14.3 15.7-25.9 15.2-24.6-1.2-35-32.2-16.2-47.8 8.8-7.4 19.4-8.5 30.1-3.3zm-276.4 90.3c16.6 7.3 22.1 27.4 11.5 41.4-8.9 11.7-24.8 14.6-36.7 6.6-19.5-13-15.1-42.5 7.3-49 6.3-1.8 12.4-1.5 17.9 1zm92.6.4c18.6 8.8 21.1 34.7 4.6 46.7-18.1 13.1-43.4.3-43.4-21.9 0-19.9 20.8-33.2 38.8-24.8zm92.5.7c8.8 4.3 14.7 14 14.7 24.1 0 24.1-29.4 36.4-46.4 19.4-10.7-10.7-10.8-28.3-.2-38.6 8.8-8.6 20.6-10.4 31.9-4.9zm87.7-1.7c10.9 3.4 19.2 15.6 18.5 27-1.6 23.2-28.2 34.3-45.7 18.9-10.4-9.1-11.8-25.5-3.2-36.8 7-9.2 18.6-12.6 30.4-9.1zm-271.3 92.6c6.1 3.1 9.6 6.5 12.2 11.6 7.3 14.6 1.7 31.2-12.9 37.9-6.3 3-17 3-22.6 0-6.6-3.5-10.1-7-13-13-7.3-14.8.2-32.5 16.1-38 4.7-1.7 15.5-.9 20.2 1.5zm88.2-1.1c22.6 7.3 25 39.1 3.8 50-22.6 11.5-48-12.4-37.3-35.2 6.2-13.4 19.6-19.3 33.5-14.8zm94.6 1.1c5.9 3 10.4 7.7 13.2 13.9 2.2 4.7 2.5 6.6 2.1 12.2-1.1 15.3-12.1 25.6-27.3 25.6-7.9-.1-13.4-2.3-19.1-7.9-14.1-13.7-8.1-39.1 10.6-45.1 5.9-1.9 15.4-1.3 20.5 1.3z"/></svg>